<mxfile host="app.diagrams.net" modified="2020-11-26T17:10:11.451Z" agent="5.0 (Windows NT 10.0; Win64; x64) AppleWebKit/537.36 (KHTML, like Gecko) Chrome/85.0.4183.121 Safari/537.36 OPR/71.0.3770.323" etag="Gw6qGjC4rWzukMzuq405" version="13.10.3" type="github">
  <diagram id="prtHgNgQTEPvFCAcTncT" name="Page-1">
    <mxGraphModel dx="760" dy="900" grid="1" gridSize="10" guides="1" tooltips="1" connect="1" arrows="1" fold="1" page="1" pageScale="1" pageWidth="827" pageHeight="1169" math="0" shadow="0">
      <root>
        <mxCell id="0" />
        <mxCell id="1" parent="0" />
        <mxCell id="VTizDpLMczkkOt09Ufi6-1" value="PRE-GAME" style="swimlane;html=1;childLayout=stackLayout;resizeParent=1;resizeParentMax=0;startSize=20;" vertex="1" parent="1">
          <mxGeometry x="40" y="40" width="730" height="1560" as="geometry" />
        </mxCell>
        <mxCell id="VTizDpLMczkkOt09Ufi6-2" value="Everyone" style="swimlane;html=1;startSize=20;" vertex="1" parent="VTizDpLMczkkOt09Ufi6-1">
          <mxGeometry y="20" width="120" height="1540" as="geometry" />
        </mxCell>
        <mxCell id="VTizDpLMczkkOt09Ufi6-12" style="edgeStyle=orthogonalEdgeStyle;rounded=0;orthogonalLoop=1;jettySize=auto;html=1;" edge="1" parent="VTizDpLMczkkOt09Ufi6-2" source="VTizDpLMczkkOt09Ufi6-9" target="VTizDpLMczkkOt09Ufi6-11">
          <mxGeometry relative="1" as="geometry" />
        </mxCell>
        <mxCell id="VTizDpLMczkkOt09Ufi6-9" value="" style="shape=mxgraph.bpmn.shape;html=1;verticalLabelPosition=bottom;labelBackgroundColor=#ffffff;verticalAlign=top;align=center;perimeter=ellipsePerimeter;outlineConnect=0;outline=standard;symbol=general;" vertex="1" parent="VTizDpLMczkkOt09Ufi6-2">
          <mxGeometry x="47.5" y="30" width="25" height="30" as="geometry" />
        </mxCell>
        <mxCell id="VTizDpLMczkkOt09Ufi6-11" value="Define&lt;br&gt;product owner" style="shape=ext;rounded=1;html=1;whiteSpace=wrap;" vertex="1" parent="VTizDpLMczkkOt09Ufi6-2">
          <mxGeometry x="20" y="80" width="80" height="40" as="geometry" />
        </mxCell>
        <mxCell id="VTizDpLMczkkOt09Ufi6-16" value="Define&lt;br&gt;Teams" style="shape=ext;rounded=1;html=1;whiteSpace=wrap;" vertex="1" parent="VTizDpLMczkkOt09Ufi6-2">
          <mxGeometry x="20" y="180" width="80" height="40" as="geometry" />
        </mxCell>
        <mxCell id="VTizDpLMczkkOt09Ufi6-26" value="Define pysical space" style="shape=ext;rounded=1;html=1;whiteSpace=wrap;" vertex="1" parent="VTizDpLMczkkOt09Ufi6-2">
          <mxGeometry x="20" y="280" width="80" height="40" as="geometry" />
        </mxCell>
        <mxCell id="VTizDpLMczkkOt09Ufi6-3" value="Scrum master" style="swimlane;html=1;startSize=20;" vertex="1" parent="VTizDpLMczkkOt09Ufi6-1">
          <mxGeometry x="120" y="20" width="120" height="1540" as="geometry" />
        </mxCell>
        <mxCell id="VTizDpLMczkkOt09Ufi6-13" value="Ready?" style="shape=mxgraph.bpmn.shape;html=1;verticalLabelPosition=bottom;labelBackgroundColor=#ffffff;verticalAlign=top;align=center;perimeter=rhombusPerimeter;background=gateway;outlineConnect=0;outline=none;symbol=exclusiveGw;" vertex="1" parent="VTizDpLMczkkOt09Ufi6-3">
          <mxGeometry x="30" y="75" width="50" height="50" as="geometry" />
        </mxCell>
        <mxCell id="VTizDpLMczkkOt09Ufi6-21" value="Ready?" style="shape=mxgraph.bpmn.shape;html=1;verticalLabelPosition=bottom;labelBackgroundColor=#ffffff;verticalAlign=top;align=center;perimeter=rhombusPerimeter;background=gateway;outlineConnect=0;outline=none;symbol=exclusiveGw;" vertex="1" parent="VTizDpLMczkkOt09Ufi6-3">
          <mxGeometry x="30" y="175" width="50" height="50" as="geometry" />
        </mxCell>
        <mxCell id="VTizDpLMczkkOt09Ufi6-28" value="Ready?" style="shape=mxgraph.bpmn.shape;html=1;verticalLabelPosition=bottom;labelBackgroundColor=#ffffff;verticalAlign=top;align=center;perimeter=rhombusPerimeter;background=gateway;outlineConnect=0;outline=none;symbol=exclusiveGw;" vertex="1" parent="VTizDpLMczkkOt09Ufi6-3">
          <mxGeometry x="30" y="275" width="50" height="50" as="geometry" />
        </mxCell>
        <mxCell id="VTizDpLMczkkOt09Ufi6-121" style="edgeStyle=orthogonalEdgeStyle;rounded=0;orthogonalLoop=1;jettySize=auto;html=1;entryX=0.75;entryY=0;entryDx=0;entryDy=0;startArrow=none;startFill=0;endArrow=classic;endFill=1;" edge="1" parent="VTizDpLMczkkOt09Ufi6-3" source="VTizDpLMczkkOt09Ufi6-115" target="VTizDpLMczkkOt09Ufi6-114">
          <mxGeometry relative="1" as="geometry">
            <Array as="points">
              <mxPoint x="110" y="1305" />
              <mxPoint x="110" y="1190" />
              <mxPoint x="80" y="1190" />
            </Array>
          </mxGeometry>
        </mxCell>
        <mxCell id="VTizDpLMczkkOt09Ufi6-122" value="No" style="edgeLabel;html=1;align=center;verticalAlign=middle;resizable=0;points=[];" vertex="1" connectable="0" parent="VTizDpLMczkkOt09Ufi6-121">
          <mxGeometry x="-0.7592" y="2" relative="1" as="geometry">
            <mxPoint as="offset" />
          </mxGeometry>
        </mxCell>
        <mxCell id="VTizDpLMczkkOt09Ufi6-125" style="edgeStyle=orthogonalEdgeStyle;rounded=0;orthogonalLoop=1;jettySize=auto;html=1;entryX=0.5;entryY=0;entryDx=0;entryDy=0;startArrow=none;startFill=0;endArrow=classic;endFill=1;exitX=0;exitY=0.5;exitDx=0;exitDy=0;" edge="1" parent="VTizDpLMczkkOt09Ufi6-3" source="VTizDpLMczkkOt09Ufi6-115" target="VTizDpLMczkkOt09Ufi6-124">
          <mxGeometry relative="1" as="geometry">
            <Array as="points">
              <mxPoint x="20" y="1305" />
              <mxPoint x="20" y="1360" />
              <mxPoint x="60" y="1360" />
            </Array>
          </mxGeometry>
        </mxCell>
        <mxCell id="VTizDpLMczkkOt09Ufi6-126" value="Yes" style="edgeLabel;html=1;align=center;verticalAlign=middle;resizable=0;points=[];" vertex="1" connectable="0" parent="VTizDpLMczkkOt09Ufi6-125">
          <mxGeometry x="-0.629" y="3" relative="1" as="geometry">
            <mxPoint x="-3" y="-9" as="offset" />
          </mxGeometry>
        </mxCell>
        <mxCell id="VTizDpLMczkkOt09Ufi6-115" value="Defined?" style="shape=mxgraph.bpmn.shape;html=1;verticalLabelPosition=bottom;labelBackgroundColor=#ffffff;verticalAlign=top;align=center;perimeter=rhombusPerimeter;background=gateway;outlineConnect=0;outline=none;symbol=exclusiveGw;" vertex="1" parent="VTizDpLMczkkOt09Ufi6-3">
          <mxGeometry x="35" y="1280" width="50" height="50" as="geometry" />
        </mxCell>
        <mxCell id="VTizDpLMczkkOt09Ufi6-114" value="Define release start ans and dates" style="shape=ext;rounded=1;html=1;whiteSpace=wrap;" vertex="1" parent="VTizDpLMczkkOt09Ufi6-3">
          <mxGeometry x="20" y="1200" width="80" height="60" as="geometry" />
        </mxCell>
        <mxCell id="VTizDpLMczkkOt09Ufi6-117" style="edgeStyle=orthogonalEdgeStyle;rounded=0;orthogonalLoop=1;jettySize=auto;html=1;startArrow=none;startFill=0;endArrow=classic;endFill=1;" edge="1" parent="VTizDpLMczkkOt09Ufi6-3" source="VTizDpLMczkkOt09Ufi6-114" target="VTizDpLMczkkOt09Ufi6-115">
          <mxGeometry relative="1" as="geometry" />
        </mxCell>
        <mxCell id="VTizDpLMczkkOt09Ufi6-124" value="Define sprint duration ans number release" style="shape=ext;rounded=1;html=1;whiteSpace=wrap;" vertex="1" parent="VTizDpLMczkkOt09Ufi6-3">
          <mxGeometry x="20" y="1380" width="80" height="60" as="geometry" />
        </mxCell>
        <mxCell id="VTizDpLMczkkOt09Ufi6-5" value="Product owner" style="swimlane;startSize=20;" vertex="1" parent="VTizDpLMczkkOt09Ufi6-1">
          <mxGeometry x="240" y="20" width="120" height="1540" as="geometry" />
        </mxCell>
        <mxCell id="VTizDpLMczkkOt09Ufi6-41" value="Define business requirement" style="shape=ext;rounded=1;html=1;whiteSpace=wrap;" vertex="1" parent="VTizDpLMczkkOt09Ufi6-5">
          <mxGeometry x="20" y="280" width="80" height="40" as="geometry" />
        </mxCell>
        <mxCell id="VTizDpLMczkkOt09Ufi6-4" value="Team" style="swimlane;html=1;startSize=20;" vertex="1" parent="VTizDpLMczkkOt09Ufi6-1">
          <mxGeometry x="360" y="20" width="130" height="1540" as="geometry" />
        </mxCell>
        <mxCell id="VTizDpLMczkkOt09Ufi6-51" value="Identify basic system archiyecture" style="shape=ext;rounded=1;html=1;whiteSpace=wrap;" vertex="1" parent="VTizDpLMczkkOt09Ufi6-4">
          <mxGeometry x="24" y="605" width="80" height="40" as="geometry" />
        </mxCell>
        <mxCell id="VTizDpLMczkkOt09Ufi6-72" style="edgeStyle=orthogonalEdgeStyle;rounded=0;orthogonalLoop=1;jettySize=auto;html=1;entryX=0.5;entryY=0;entryDx=0;entryDy=0;" edge="1" parent="VTizDpLMczkkOt09Ufi6-4" source="VTizDpLMczkkOt09Ufi6-64" target="VTizDpLMczkkOt09Ufi6-71">
          <mxGeometry relative="1" as="geometry" />
        </mxCell>
        <mxCell id="VTizDpLMczkkOt09Ufi6-64" value="Analyze and learn tools, technologies and practices" style="html=1;whiteSpace=wrap;rounded=1;dropTarget=0;" vertex="1" parent="VTizDpLMczkkOt09Ufi6-4">
          <mxGeometry x="14" y="745" width="100" height="100" as="geometry" />
        </mxCell>
        <mxCell id="VTizDpLMczkkOt09Ufi6-65" value="" style="html=1;shape=plus;outlineConnect=0;" vertex="1" parent="VTizDpLMczkkOt09Ufi6-64">
          <mxGeometry x="0.5" y="1" width="14" height="14" relative="1" as="geometry">
            <mxPoint x="-7" y="-14" as="offset" />
          </mxGeometry>
        </mxCell>
        <mxCell id="VTizDpLMczkkOt09Ufi6-71" value="Define tools for use" style="shape=ext;rounded=1;html=1;whiteSpace=wrap;" vertex="1" parent="VTizDpLMczkkOt09Ufi6-4">
          <mxGeometry x="24" y="875" width="80" height="40" as="geometry" />
        </mxCell>
        <mxCell id="VTizDpLMczkkOt09Ufi6-78" value="Define software for use" style="shape=ext;rounded=1;html=1;whiteSpace=wrap;" vertex="1" parent="VTizDpLMczkkOt09Ufi6-4">
          <mxGeometry x="24" y="1015" width="80" height="40" as="geometry" />
        </mxCell>
        <mxCell id="VTizDpLMczkkOt09Ufi6-99" value="&lt;span style=&quot;font-size: 12px&quot;&gt;understand &lt;br&gt;the user stories?&lt;/span&gt;" style="shape=mxgraph.bpmn.shape;html=1;verticalLabelPosition=bottom;labelBackgroundColor=#ffffff;verticalAlign=top;align=center;perimeter=rhombusPerimeter;background=gateway;outlineConnect=0;outline=none;symbol=exclusiveGw;" vertex="1" parent="VTizDpLMczkkOt09Ufi6-4">
          <mxGeometry x="40" y="450" width="50" height="50" as="geometry" />
        </mxCell>
        <mxCell id="VTizDpLMczkkOt09Ufi6-106" value="Domain analysis to include requeriments" style="shape=ext;rounded=1;html=1;whiteSpace=wrap;" vertex="1" parent="VTizDpLMczkkOt09Ufi6-4">
          <mxGeometry x="25" y="1110" width="80" height="60" as="geometry" />
        </mxCell>
        <mxCell id="VTizDpLMczkkOt09Ufi6-84" style="edgeStyle=orthogonalEdgeStyle;rounded=0;orthogonalLoop=1;jettySize=auto;html=1;entryX=0;entryY=0.5;entryDx=0;entryDy=0;" edge="1" parent="VTizDpLMczkkOt09Ufi6-1" source="VTizDpLMczkkOt09Ufi6-78" target="VTizDpLMczkkOt09Ufi6-83">
          <mxGeometry relative="1" as="geometry" />
        </mxCell>
        <mxCell id="VTizDpLMczkkOt09Ufi6-85" style="edgeStyle=orthogonalEdgeStyle;rounded=0;orthogonalLoop=1;jettySize=auto;html=1;entryX=0.5;entryY=0;entryDx=0;entryDy=0;" edge="1" parent="VTizDpLMczkkOt09Ufi6-1" source="VTizDpLMczkkOt09Ufi6-73" target="VTizDpLMczkkOt09Ufi6-78">
          <mxGeometry relative="1" as="geometry" />
        </mxCell>
        <mxCell id="VTizDpLMczkkOt09Ufi6-86" value="Yes" style="edgeLabel;html=1;align=center;verticalAlign=middle;resizable=0;points=[];" vertex="1" connectable="0" parent="VTizDpLMczkkOt09Ufi6-85">
          <mxGeometry x="-0.7471" y="-2" relative="1" as="geometry">
            <mxPoint x="5.83" y="2" as="offset" />
          </mxGeometry>
        </mxCell>
        <mxCell id="VTizDpLMczkkOt09Ufi6-87" style="edgeStyle=orthogonalEdgeStyle;rounded=0;orthogonalLoop=1;jettySize=auto;html=1;entryX=0.75;entryY=0;entryDx=0;entryDy=0;" edge="1" parent="VTizDpLMczkkOt09Ufi6-1" source="VTizDpLMczkkOt09Ufi6-83" target="VTizDpLMczkkOt09Ufi6-78">
          <mxGeometry relative="1" as="geometry">
            <Array as="points">
              <mxPoint x="544" y="1015" />
              <mxPoint x="444" y="1015" />
            </Array>
          </mxGeometry>
        </mxCell>
        <mxCell id="VTizDpLMczkkOt09Ufi6-88" value="No" style="edgeLabel;html=1;align=center;verticalAlign=middle;resizable=0;points=[];" vertex="1" connectable="0" parent="VTizDpLMczkkOt09Ufi6-87">
          <mxGeometry x="-0.481" y="1" relative="1" as="geometry">
            <mxPoint x="20" y="4" as="offset" />
          </mxGeometry>
        </mxCell>
        <mxCell id="VTizDpLMczkkOt09Ufi6-75" style="edgeStyle=orthogonalEdgeStyle;rounded=0;orthogonalLoop=1;jettySize=auto;html=1;" edge="1" parent="VTizDpLMczkkOt09Ufi6-1" source="VTizDpLMczkkOt09Ufi6-73" target="VTizDpLMczkkOt09Ufi6-71">
          <mxGeometry relative="1" as="geometry">
            <mxPoint x="434" y="860" as="targetPoint" />
            <Array as="points">
              <mxPoint x="584" y="965" />
              <mxPoint x="584" y="880" />
              <mxPoint x="434" y="880" />
            </Array>
          </mxGeometry>
        </mxCell>
        <mxCell id="VTizDpLMczkkOt09Ufi6-76" value="No" style="edgeLabel;html=1;align=center;verticalAlign=middle;resizable=0;points=[];" vertex="1" connectable="0" parent="VTizDpLMczkkOt09Ufi6-75">
          <mxGeometry x="-0.8074" y="1" relative="1" as="geometry">
            <mxPoint x="-3" y="11" as="offset" />
          </mxGeometry>
        </mxCell>
        <mxCell id="VTizDpLMczkkOt09Ufi6-74" style="edgeStyle=orthogonalEdgeStyle;rounded=0;orthogonalLoop=1;jettySize=auto;html=1;exitX=1;exitY=0.5;exitDx=0;exitDy=0;" edge="1" parent="VTizDpLMczkkOt09Ufi6-1" source="VTizDpLMczkkOt09Ufi6-71" target="VTizDpLMczkkOt09Ufi6-73">
          <mxGeometry relative="1" as="geometry">
            <mxPoint x="454" y="880" as="sourcePoint" />
            <Array as="points">
              <mxPoint x="464" y="910" />
              <mxPoint x="544" y="910" />
            </Array>
          </mxGeometry>
        </mxCell>
        <mxCell id="VTizDpLMczkkOt09Ufi6-8" value="Scrum master&#xa;team" style="swimlane;startSize=20;" vertex="1" parent="VTizDpLMczkkOt09Ufi6-1">
          <mxGeometry x="490" y="20" width="120" height="1540" as="geometry" />
        </mxCell>
        <mxCell id="VTizDpLMczkkOt09Ufi6-96" style="edgeStyle=orthogonalEdgeStyle;rounded=0;orthogonalLoop=1;jettySize=auto;html=1;entryX=0.5;entryY=0;entryDx=0;entryDy=0;startArrow=none;startFill=0;endArrow=classic;endFill=1;exitX=1;exitY=0.5;exitDx=0;exitDy=0;" edge="1" parent="VTizDpLMczkkOt09Ufi6-8" source="VTizDpLMczkkOt09Ufi6-44" target="VTizDpLMczkkOt09Ufi6-90">
          <mxGeometry relative="1" as="geometry">
            <Array as="points">
              <mxPoint x="100" y="300" />
              <mxPoint x="100" y="350" />
              <mxPoint x="64" y="350" />
            </Array>
          </mxGeometry>
        </mxCell>
        <mxCell id="VTizDpLMczkkOt09Ufi6-97" value="Yes" style="edgeLabel;html=1;align=center;verticalAlign=middle;resizable=0;points=[];" vertex="1" connectable="0" parent="VTizDpLMczkkOt09Ufi6-96">
          <mxGeometry x="-0.7951" y="-1" relative="1" as="geometry">
            <mxPoint as="offset" />
          </mxGeometry>
        </mxCell>
        <mxCell id="VTizDpLMczkkOt09Ufi6-44" value="Ready?" style="shape=mxgraph.bpmn.shape;html=1;verticalLabelPosition=bottom;labelBackgroundColor=#ffffff;verticalAlign=top;align=center;perimeter=rhombusPerimeter;background=gateway;outlineConnect=0;outline=none;symbol=exclusiveGw;" vertex="1" parent="VTizDpLMczkkOt09Ufi6-8">
          <mxGeometry x="35" y="275" width="50" height="50" as="geometry" />
        </mxCell>
        <mxCell id="VTizDpLMczkkOt09Ufi6-49" value="Identify basic system archiyecture" style="shape=ext;rounded=1;html=1;whiteSpace=wrap;" vertex="1" parent="VTizDpLMczkkOt09Ufi6-8">
          <mxGeometry x="24" y="540" width="80" height="40" as="geometry" />
        </mxCell>
        <mxCell id="VTizDpLMczkkOt09Ufi6-57" value="Ready?" style="shape=mxgraph.bpmn.shape;html=1;verticalLabelPosition=bottom;labelBackgroundColor=#ffffff;verticalAlign=top;align=center;perimeter=rhombusPerimeter;background=gateway;outlineConnect=0;outline=none;symbol=exclusiveGw;" vertex="1" parent="VTizDpLMczkkOt09Ufi6-8">
          <mxGeometry x="39" y="605" width="50" height="50" as="geometry" />
        </mxCell>
        <mxCell id="VTizDpLMczkkOt09Ufi6-61" value="Define technology to use" style="shape=ext;rounded=1;html=1;whiteSpace=wrap;" vertex="1" parent="VTizDpLMczkkOt09Ufi6-8">
          <mxGeometry x="24" y="705" width="80" height="40" as="geometry" />
        </mxCell>
        <mxCell id="VTizDpLMczkkOt09Ufi6-62" style="edgeStyle=orthogonalEdgeStyle;rounded=0;orthogonalLoop=1;jettySize=auto;html=1;entryX=0.5;entryY=0;entryDx=0;entryDy=0;" edge="1" parent="VTizDpLMczkkOt09Ufi6-8" source="VTizDpLMczkkOt09Ufi6-57" target="VTizDpLMczkkOt09Ufi6-61">
          <mxGeometry relative="1" as="geometry">
            <Array as="points">
              <mxPoint x="100" y="630" />
              <mxPoint x="100" y="685" />
              <mxPoint x="64" y="685" />
            </Array>
          </mxGeometry>
        </mxCell>
        <mxCell id="VTizDpLMczkkOt09Ufi6-63" value="Yes" style="edgeLabel;html=1;align=center;verticalAlign=middle;resizable=0;points=[];" vertex="1" connectable="0" parent="VTizDpLMczkkOt09Ufi6-62">
          <mxGeometry x="-0.7986" y="-1" relative="1" as="geometry">
            <mxPoint y="-1.4100000000000001" as="offset" />
          </mxGeometry>
        </mxCell>
        <mxCell id="VTizDpLMczkkOt09Ufi6-73" value="Defined?" style="shape=mxgraph.bpmn.shape;html=1;verticalLabelPosition=bottom;labelBackgroundColor=#ffffff;verticalAlign=top;align=center;perimeter=rhombusPerimeter;background=gateway;outlineConnect=0;outline=none;symbol=exclusiveGw;" vertex="1" parent="VTizDpLMczkkOt09Ufi6-8">
          <mxGeometry x="29" y="920" width="50" height="50" as="geometry" />
        </mxCell>
        <mxCell id="VTizDpLMczkkOt09Ufi6-83" value="Defined?" style="shape=mxgraph.bpmn.shape;html=1;verticalLabelPosition=bottom;labelBackgroundColor=#ffffff;verticalAlign=top;align=center;perimeter=rhombusPerimeter;background=gateway;outlineConnect=0;outline=none;symbol=exclusiveGw;" vertex="1" parent="VTizDpLMczkkOt09Ufi6-8">
          <mxGeometry x="29" y="1010" width="50" height="50" as="geometry" />
        </mxCell>
        <mxCell id="VTizDpLMczkkOt09Ufi6-95" style="edgeStyle=orthogonalEdgeStyle;rounded=0;orthogonalLoop=1;jettySize=auto;html=1;startArrow=none;startFill=0;endArrow=classic;endFill=1;" edge="1" parent="VTizDpLMczkkOt09Ufi6-8" source="VTizDpLMczkkOt09Ufi6-90" target="VTizDpLMczkkOt09Ufi6-94">
          <mxGeometry relative="1" as="geometry" />
        </mxCell>
        <mxCell id="VTizDpLMczkkOt09Ufi6-90" value="Construct spike prototype" style="shape=ext;rounded=1;html=1;whiteSpace=wrap;" vertex="1" parent="VTizDpLMczkkOt09Ufi6-8">
          <mxGeometry x="24" y="380" width="80" height="50" as="geometry" />
        </mxCell>
        <mxCell id="VTizDpLMczkkOt09Ufi6-94" value="Test spike prototype" style="shape=ext;rounded=1;html=1;whiteSpace=wrap;" vertex="1" parent="VTizDpLMczkkOt09Ufi6-8">
          <mxGeometry x="24" y="450" width="80" height="50" as="geometry" />
        </mxCell>
        <mxCell id="VTizDpLMczkkOt09Ufi6-107" value="Done?" style="shape=mxgraph.bpmn.shape;html=1;verticalLabelPosition=bottom;labelBackgroundColor=#ffffff;verticalAlign=top;align=center;perimeter=rhombusPerimeter;background=gateway;outlineConnect=0;outline=none;symbol=exclusiveGw;" vertex="1" parent="VTizDpLMczkkOt09Ufi6-8">
          <mxGeometry x="35" y="1109" width="50" height="50" as="geometry" />
        </mxCell>
        <mxCell id="VTizDpLMczkkOt09Ufi6-52" style="edgeStyle=orthogonalEdgeStyle;rounded=0;orthogonalLoop=1;jettySize=auto;html=1;entryX=0.5;entryY=0;entryDx=0;entryDy=0;" edge="1" parent="VTizDpLMczkkOt09Ufi6-1" source="VTizDpLMczkkOt09Ufi6-49" target="VTizDpLMczkkOt09Ufi6-51">
          <mxGeometry relative="1" as="geometry">
            <Array as="points">
              <mxPoint x="424" y="580" />
            </Array>
          </mxGeometry>
        </mxCell>
        <mxCell id="VTizDpLMczkkOt09Ufi6-58" style="edgeStyle=orthogonalEdgeStyle;rounded=0;orthogonalLoop=1;jettySize=auto;html=1;entryX=0.669;entryY=0.003;entryDx=0;entryDy=0;entryPerimeter=0;" edge="1" parent="VTizDpLMczkkOt09Ufi6-1" source="VTizDpLMczkkOt09Ufi6-57" target="VTizDpLMczkkOt09Ufi6-51">
          <mxGeometry relative="1" as="geometry">
            <Array as="points">
              <mxPoint x="554" y="615" />
              <mxPoint x="438" y="615" />
            </Array>
          </mxGeometry>
        </mxCell>
        <mxCell id="VTizDpLMczkkOt09Ufi6-59" value="No" style="edgeLabel;html=1;align=center;verticalAlign=middle;resizable=0;points=[];" vertex="1" connectable="0" parent="VTizDpLMczkkOt09Ufi6-58">
          <mxGeometry x="-0.5954" y="1" relative="1" as="geometry">
            <mxPoint x="13.59" as="offset" />
          </mxGeometry>
        </mxCell>
        <mxCell id="VTizDpLMczkkOt09Ufi6-89" style="edgeStyle=orthogonalEdgeStyle;rounded=0;orthogonalLoop=1;jettySize=auto;html=1;entryX=0.5;entryY=0;entryDx=0;entryDy=0;dashed=1;endArrow=blockThin;endFill=0;startArrow=oval;startFill=0;" edge="1" parent="VTizDpLMczkkOt09Ufi6-1" source="VTizDpLMczkkOt09Ufi6-61" target="VTizDpLMczkkOt09Ufi6-64">
          <mxGeometry relative="1" as="geometry" />
        </mxCell>
        <mxCell id="VTizDpLMczkkOt09Ufi6-6" value="Scrum master&#xa;product owner" style="swimlane;startSize=20;" vertex="1" parent="VTizDpLMczkkOt09Ufi6-1">
          <mxGeometry x="610" y="20" width="120" height="1540" as="geometry" />
        </mxCell>
        <mxCell id="VTizDpLMczkkOt09Ufi6-14" style="edgeStyle=orthogonalEdgeStyle;rounded=0;orthogonalLoop=1;jettySize=auto;html=1;" edge="1" parent="VTizDpLMczkkOt09Ufi6-1" source="VTizDpLMczkkOt09Ufi6-11" target="VTizDpLMczkkOt09Ufi6-13">
          <mxGeometry relative="1" as="geometry" />
        </mxCell>
        <mxCell id="VTizDpLMczkkOt09Ufi6-17" style="edgeStyle=orthogonalEdgeStyle;rounded=0;orthogonalLoop=1;jettySize=auto;html=1;entryX=0.5;entryY=0;entryDx=0;entryDy=0;" edge="1" parent="VTizDpLMczkkOt09Ufi6-1" source="VTizDpLMczkkOt09Ufi6-13" target="VTizDpLMczkkOt09Ufi6-16">
          <mxGeometry relative="1" as="geometry">
            <Array as="points">
              <mxPoint x="210" y="120" />
              <mxPoint x="210" y="170" />
              <mxPoint x="60" y="170" />
            </Array>
          </mxGeometry>
        </mxCell>
        <mxCell id="VTizDpLMczkkOt09Ufi6-18" value="Yes" style="edgeLabel;html=1;align=center;verticalAlign=middle;resizable=0;points=[];" vertex="1" connectable="0" parent="VTizDpLMczkkOt09Ufi6-17">
          <mxGeometry x="-0.772" relative="1" as="geometry">
            <mxPoint as="offset" />
          </mxGeometry>
        </mxCell>
        <mxCell id="VTizDpLMczkkOt09Ufi6-19" style="edgeStyle=orthogonalEdgeStyle;rounded=0;orthogonalLoop=1;jettySize=auto;html=1;entryX=0.75;entryY=0;entryDx=0;entryDy=0;" edge="1" parent="VTizDpLMczkkOt09Ufi6-1" source="VTizDpLMczkkOt09Ufi6-13" target="VTizDpLMczkkOt09Ufi6-11">
          <mxGeometry relative="1" as="geometry">
            <Array as="points">
              <mxPoint x="175" y="80" />
              <mxPoint x="80" y="80" />
            </Array>
          </mxGeometry>
        </mxCell>
        <mxCell id="VTizDpLMczkkOt09Ufi6-20" value="No" style="edgeLabel;html=1;align=center;verticalAlign=middle;resizable=0;points=[];" vertex="1" connectable="0" parent="VTizDpLMczkkOt09Ufi6-19">
          <mxGeometry x="-0.6052" y="1" relative="1" as="geometry">
            <mxPoint x="11" y="-1" as="offset" />
          </mxGeometry>
        </mxCell>
        <mxCell id="VTizDpLMczkkOt09Ufi6-24" style="edgeStyle=orthogonalEdgeStyle;rounded=0;orthogonalLoop=1;jettySize=auto;html=1;entryX=0;entryY=0.5;entryDx=0;entryDy=0;" edge="1" parent="VTizDpLMczkkOt09Ufi6-1" source="VTizDpLMczkkOt09Ufi6-16" target="VTizDpLMczkkOt09Ufi6-21">
          <mxGeometry relative="1" as="geometry" />
        </mxCell>
        <mxCell id="VTizDpLMczkkOt09Ufi6-31" style="edgeStyle=orthogonalEdgeStyle;rounded=0;orthogonalLoop=1;jettySize=auto;html=1;entryX=0.5;entryY=0;entryDx=0;entryDy=0;" edge="1" parent="VTizDpLMczkkOt09Ufi6-1" source="VTizDpLMczkkOt09Ufi6-21" target="VTizDpLMczkkOt09Ufi6-26">
          <mxGeometry relative="1" as="geometry">
            <Array as="points">
              <mxPoint x="210" y="220" />
              <mxPoint x="210" y="270" />
              <mxPoint x="60" y="270" />
            </Array>
          </mxGeometry>
        </mxCell>
        <mxCell id="VTizDpLMczkkOt09Ufi6-35" value="Yes" style="edgeLabel;html=1;align=center;verticalAlign=middle;resizable=0;points=[];" vertex="1" connectable="0" parent="VTizDpLMczkkOt09Ufi6-31">
          <mxGeometry x="-0.823" y="2" relative="1" as="geometry">
            <mxPoint as="offset" />
          </mxGeometry>
        </mxCell>
        <mxCell id="VTizDpLMczkkOt09Ufi6-32" style="edgeStyle=orthogonalEdgeStyle;rounded=0;orthogonalLoop=1;jettySize=auto;html=1;entryX=0;entryY=0.5;entryDx=0;entryDy=0;" edge="1" parent="VTizDpLMczkkOt09Ufi6-1" source="VTizDpLMczkkOt09Ufi6-26" target="VTizDpLMczkkOt09Ufi6-28">
          <mxGeometry relative="1" as="geometry" />
        </mxCell>
        <mxCell id="VTizDpLMczkkOt09Ufi6-33" style="edgeStyle=orthogonalEdgeStyle;rounded=0;orthogonalLoop=1;jettySize=auto;html=1;entryX=0.75;entryY=0;entryDx=0;entryDy=0;" edge="1" parent="VTizDpLMczkkOt09Ufi6-1" source="VTizDpLMczkkOt09Ufi6-21" target="VTizDpLMczkkOt09Ufi6-16">
          <mxGeometry relative="1" as="geometry">
            <Array as="points">
              <mxPoint x="175" y="180" />
              <mxPoint x="80" y="180" />
            </Array>
          </mxGeometry>
        </mxCell>
        <mxCell id="VTizDpLMczkkOt09Ufi6-34" value="No" style="edgeLabel;html=1;align=center;verticalAlign=middle;resizable=0;points=[];" vertex="1" connectable="0" parent="VTizDpLMczkkOt09Ufi6-33">
          <mxGeometry x="-0.5899" y="-1" relative="1" as="geometry">
            <mxPoint x="12" as="offset" />
          </mxGeometry>
        </mxCell>
        <mxCell id="VTizDpLMczkkOt09Ufi6-36" style="edgeStyle=orthogonalEdgeStyle;rounded=0;orthogonalLoop=1;jettySize=auto;html=1;entryX=0.75;entryY=0;entryDx=0;entryDy=0;" edge="1" parent="VTizDpLMczkkOt09Ufi6-1" source="VTizDpLMczkkOt09Ufi6-28" target="VTizDpLMczkkOt09Ufi6-26">
          <mxGeometry relative="1" as="geometry">
            <Array as="points">
              <mxPoint x="175" y="280" />
              <mxPoint x="80" y="280" />
            </Array>
          </mxGeometry>
        </mxCell>
        <mxCell id="VTizDpLMczkkOt09Ufi6-37" value="No" style="edgeLabel;html=1;align=center;verticalAlign=middle;resizable=0;points=[];" vertex="1" connectable="0" parent="VTizDpLMczkkOt09Ufi6-36">
          <mxGeometry x="-0.5283" relative="1" as="geometry">
            <mxPoint x="16" as="offset" />
          </mxGeometry>
        </mxCell>
        <mxCell id="VTizDpLMczkkOt09Ufi6-42" style="edgeStyle=orthogonalEdgeStyle;rounded=0;orthogonalLoop=1;jettySize=auto;html=1;entryX=0;entryY=0.5;entryDx=0;entryDy=0;" edge="1" parent="VTizDpLMczkkOt09Ufi6-1" source="VTizDpLMczkkOt09Ufi6-28" target="VTizDpLMczkkOt09Ufi6-41">
          <mxGeometry relative="1" as="geometry">
            <Array as="points">
              <mxPoint x="210" y="320" />
              <mxPoint x="210" y="320" />
            </Array>
          </mxGeometry>
        </mxCell>
        <mxCell id="VTizDpLMczkkOt09Ufi6-43" value="Yes" style="edgeLabel;html=1;align=center;verticalAlign=middle;resizable=0;points=[];" vertex="1" connectable="0" parent="VTizDpLMczkkOt09Ufi6-42">
          <mxGeometry x="-0.3347" relative="1" as="geometry">
            <mxPoint as="offset" />
          </mxGeometry>
        </mxCell>
        <mxCell id="VTizDpLMczkkOt09Ufi6-45" style="edgeStyle=orthogonalEdgeStyle;rounded=0;orthogonalLoop=1;jettySize=auto;html=1;entryX=0;entryY=0.5;entryDx=0;entryDy=0;" edge="1" parent="VTizDpLMczkkOt09Ufi6-1" source="VTizDpLMczkkOt09Ufi6-41" target="VTizDpLMczkkOt09Ufi6-44">
          <mxGeometry relative="1" as="geometry">
            <mxPoint x="520" y="320" as="targetPoint" />
            <Array as="points" />
          </mxGeometry>
        </mxCell>
        <mxCell id="VTizDpLMczkkOt09Ufi6-46" style="edgeStyle=orthogonalEdgeStyle;rounded=0;orthogonalLoop=1;jettySize=auto;html=1;entryX=0.5;entryY=0;entryDx=0;entryDy=0;" edge="1" parent="VTizDpLMczkkOt09Ufi6-1" source="VTizDpLMczkkOt09Ufi6-44" target="VTizDpLMczkkOt09Ufi6-41">
          <mxGeometry relative="1" as="geometry">
            <Array as="points">
              <mxPoint x="540" y="280" />
              <mxPoint x="300" y="280" />
            </Array>
          </mxGeometry>
        </mxCell>
        <mxCell id="VTizDpLMczkkOt09Ufi6-47" value="No" style="edgeLabel;html=1;align=center;verticalAlign=middle;resizable=0;points=[];" vertex="1" connectable="0" parent="VTizDpLMczkkOt09Ufi6-46">
          <mxGeometry x="-0.7654" y="-2" relative="1" as="geometry">
            <mxPoint as="offset" />
          </mxGeometry>
        </mxCell>
        <mxCell id="VTizDpLMczkkOt09Ufi6-100" style="edgeStyle=orthogonalEdgeStyle;rounded=0;orthogonalLoop=1;jettySize=auto;html=1;entryX=0.5;entryY=0;entryDx=0;entryDy=0;startArrow=none;startFill=0;endArrow=classic;endFill=1;" edge="1" parent="VTizDpLMczkkOt09Ufi6-1" source="VTizDpLMczkkOt09Ufi6-94" target="VTizDpLMczkkOt09Ufi6-99">
          <mxGeometry relative="1" as="geometry">
            <Array as="points">
              <mxPoint x="500" y="495" />
              <mxPoint x="500" y="450" />
              <mxPoint x="425" y="450" />
            </Array>
          </mxGeometry>
        </mxCell>
        <mxCell id="VTizDpLMczkkOt09Ufi6-101" style="edgeStyle=orthogonalEdgeStyle;rounded=0;orthogonalLoop=1;jettySize=auto;html=1;entryX=0.25;entryY=0;entryDx=0;entryDy=0;startArrow=none;startFill=0;endArrow=classic;endFill=1;" edge="1" parent="VTizDpLMczkkOt09Ufi6-1" source="VTizDpLMczkkOt09Ufi6-99" target="VTizDpLMczkkOt09Ufi6-90">
          <mxGeometry relative="1" as="geometry">
            <Array as="points">
              <mxPoint x="380" y="495" />
              <mxPoint x="380" y="380" />
              <mxPoint x="534" y="380" />
            </Array>
          </mxGeometry>
        </mxCell>
        <mxCell id="VTizDpLMczkkOt09Ufi6-102" value="No" style="edgeLabel;html=1;align=center;verticalAlign=middle;resizable=0;points=[];" vertex="1" connectable="0" parent="VTizDpLMczkkOt09Ufi6-101">
          <mxGeometry x="-0.8399" y="-1" relative="1" as="geometry">
            <mxPoint x="3" y="4.83" as="offset" />
          </mxGeometry>
        </mxCell>
        <mxCell id="VTizDpLMczkkOt09Ufi6-103" style="edgeStyle=orthogonalEdgeStyle;rounded=0;orthogonalLoop=1;jettySize=auto;html=1;startArrow=none;startFill=0;endArrow=classic;endFill=1;" edge="1" parent="VTizDpLMczkkOt09Ufi6-1" source="VTizDpLMczkkOt09Ufi6-99" target="VTizDpLMczkkOt09Ufi6-49">
          <mxGeometry relative="1" as="geometry">
            <Array as="points">
              <mxPoint x="470" y="495" />
              <mxPoint x="470" y="540" />
              <mxPoint x="554" y="540" />
            </Array>
          </mxGeometry>
        </mxCell>
        <mxCell id="VTizDpLMczkkOt09Ufi6-104" value="Yes" style="edgeLabel;html=1;align=center;verticalAlign=middle;resizable=0;points=[];" vertex="1" connectable="0" parent="VTizDpLMczkkOt09Ufi6-103">
          <mxGeometry x="-0.782" y="1" relative="1" as="geometry">
            <mxPoint as="offset" />
          </mxGeometry>
        </mxCell>
        <mxCell id="VTizDpLMczkkOt09Ufi6-108" style="edgeStyle=orthogonalEdgeStyle;rounded=0;orthogonalLoop=1;jettySize=auto;html=1;entryX=0.75;entryY=0;entryDx=0;entryDy=0;startArrow=none;startFill=0;endArrow=classic;endFill=1;" edge="1" parent="VTizDpLMczkkOt09Ufi6-1" source="VTizDpLMczkkOt09Ufi6-107" target="VTizDpLMczkkOt09Ufi6-106">
          <mxGeometry relative="1" as="geometry">
            <Array as="points">
              <mxPoint x="550" y="1110" />
              <mxPoint x="445" y="1110" />
            </Array>
          </mxGeometry>
        </mxCell>
        <mxCell id="VTizDpLMczkkOt09Ufi6-113" value="No" style="edgeLabel;html=1;align=center;verticalAlign=middle;resizable=0;points=[];" vertex="1" connectable="0" parent="VTizDpLMczkkOt09Ufi6-108">
          <mxGeometry x="-0.5958" y="-4" relative="1" as="geometry">
            <mxPoint x="10" y="4" as="offset" />
          </mxGeometry>
        </mxCell>
        <mxCell id="VTizDpLMczkkOt09Ufi6-110" style="edgeStyle=orthogonalEdgeStyle;rounded=0;orthogonalLoop=1;jettySize=auto;html=1;entryX=0.5;entryY=0;entryDx=0;entryDy=0;startArrow=none;startFill=0;endArrow=classic;endFill=1;" edge="1" parent="VTizDpLMczkkOt09Ufi6-1" source="VTizDpLMczkkOt09Ufi6-83" target="VTizDpLMczkkOt09Ufi6-106">
          <mxGeometry relative="1" as="geometry">
            <Array as="points">
              <mxPoint x="580" y="1055" />
              <mxPoint x="580" y="1100" />
              <mxPoint x="425" y="1100" />
            </Array>
          </mxGeometry>
        </mxCell>
        <mxCell id="VTizDpLMczkkOt09Ufi6-116" style="edgeStyle=orthogonalEdgeStyle;rounded=0;orthogonalLoop=1;jettySize=auto;html=1;entryX=0.5;entryY=0;entryDx=0;entryDy=0;startArrow=none;startFill=0;endArrow=classic;endFill=1;exitX=1;exitY=0.5;exitDx=0;exitDy=0;" edge="1" parent="VTizDpLMczkkOt09Ufi6-1" source="VTizDpLMczkkOt09Ufi6-107" target="VTizDpLMczkkOt09Ufi6-114">
          <mxGeometry relative="1" as="geometry">
            <Array as="points">
              <mxPoint x="590" y="1154" />
              <mxPoint x="590" y="1200" />
              <mxPoint x="180" y="1200" />
            </Array>
          </mxGeometry>
        </mxCell>
        <mxCell id="VTizDpLMczkkOt09Ufi6-118" value="Yes" style="edgeLabel;html=1;align=center;verticalAlign=middle;resizable=0;points=[];" vertex="1" connectable="0" parent="VTizDpLMczkkOt09Ufi6-116">
          <mxGeometry x="-0.6776" y="3" relative="1" as="geometry">
            <mxPoint x="21" y="-49" as="offset" />
          </mxGeometry>
        </mxCell>
      </root>
    </mxGraphModel>
  </diagram>
</mxfile>
